<svg width="58" height="32" viewBox="0 0 58 32" fill="none" xmlns="http://www.w3.org/2000/svg">
	<rect width="57.6" height="31.9999" rx="10" fill="#DC785F" />
	<path fill-rule="evenodd" clip-rule="evenodd" d="M10 32H47.6C51.4366 32 54.7686 29.8395 56.4456 26.6687C53.8373 22.9144 46.6913 24.1824 33.6635 26.4942C32.3872 26.7207 31.0545 26.9572 29.664 27.2C11.2561 30.414 2.35156 24.4163 0.390357 7.22412C0.188026 7.92577 0.0604613 8.65911 0.0168457 9.41497V22.5852C0.319819 27.8357 4.6736 32 10 32Z" fill="#A64A35" />
	<path fill-rule="evenodd" clip-rule="evenodd" d="M57.6 20.7621V10C57.6 4.47715 53.1228 0 47.6 0H9.99999C6.8092 0 3.96745 1.49442 2.13647 3.82152C8.23592 9.96231 30.6743 8.26969 41.7601 6.07991C52.5801 3.94261 56.2581 7.27626 57.6 20.7621Z" fill="#FFA88D" />
	<g filter="url(#filter0_d)">
		<path d="M25.889 19.5269L22.6901 15.9743L25.889 12.4216C26.2089 12.0664 26.2089 11.5016 25.889 11.1463C25.5691 10.7911 25.0605 10.7911 24.7406 11.1463L20.9758 15.3275C20.6559 15.6828 20.6559 16.2566 20.9758 16.6119L24.7406 20.8022C25.0605 21.1574 25.5691 21.1574 25.889 20.8022C26.2089 20.4469 26.2089 19.8821 25.889 19.5269ZM31.3025 19.5269L34.5015 15.9743L31.3025 12.4216C30.9826 12.0664 30.9826 11.5016 31.3025 11.1463C31.6224 10.7911 32.131 10.7911 32.4509 11.1463L36.2158 15.3275C36.5357 15.6828 36.5357 16.2566 36.2158 16.6119L32.4509 20.8022C32.131 21.1574 31.6224 21.1574 31.3025 20.8022C30.9826 20.4469 30.9826 19.8821 31.3025 19.5269Z" fill="#212121" />
	</g>
	<defs>
		<filter id="filter0_d" x="20.7358" y="10.8799" width="16.7198" height="11.1887" filterUnits="userSpaceOnUse" color-interpolation-filters="sRGB">
			<feFlood flood-opacity="0" result="BackgroundImageFix" />
			<feColorMatrix in="SourceAlpha" type="matrix" values="0 0 0 0 0 0 0 0 0 0 0 0 0 0 0 0 0 0 127 0" />
			<feOffset dx="1" dy="1" />
			<feColorMatrix type="matrix" values="0 0 0 0 0 0 0 0 0 0 0 0 0 0 0 0 0 0 0.1 0" />
			<feBlend mode="normal" in2="BackgroundImageFix" result="effect1_dropShadow" />
			<feBlend mode="normal" in="SourceGraphic" in2="effect1_dropShadow" result="shape" />
		</filter>
	</defs>
</svg>
