<svg width="1000" height="750" viewBox="0 0 1000 750" fill="none" xmlns="http://www.w3.org/2000/svg">
	<g opacity="0.25">
		<g clip-path="url(#clip0)">
			<path d="M1000 558.125C1000 578.146 983.91 594.375 964.062 594.375C944.215 594.375 928.125 578.146 928.125 558.125" stroke="#A64A35" stroke-width="13" stroke-linecap="round" stroke-linejoin="round" />
			<path d="M1000 30.625C975.145 30.625 955 10.3379 955 -14.6875C955 -39.7129 975.145 -60 1000 -60" stroke="#FFDABD" stroke-width="13" stroke-linecap="round" stroke-linejoin="round" />
			<path d="M351.25 -23.1837C351.25 -2.44077 368.039 14.375 388.75 14.375C409.461 14.375 426.25 -2.44077 426.25 -23.1837V-65.625" stroke="#A64A35" stroke-width="13" stroke-linecap="round" stroke-linejoin="round" />
			<path d="M85.7721 816.25C39.0918 816.25 1.25 778.617 1.25 732.188C1.25 685.758 39.0918 648.125 85.7721 648.125H163.125" stroke="#721D0E" stroke-width="13" stroke-linecap="round" stroke-linejoin="round" />
			<path d="M80.6127 758.75C65.0862 758.75 52.5 746.579 52.5 731.562C52.5 716.546 65.0862 704.375 80.6127 704.375H110.625" stroke="#A64A35" stroke-width="13" stroke-linecap="round" stroke-linejoin="round" />
			<path d="M1000 222.5V117.301C1000 96.6998 983.207 80 962.5 80C941.793 80 925 96.6998 925 117.301V133.584" stroke="#DC785F" stroke-width="13" stroke-linecap="round" stroke-linejoin="round" />
			<path d="M243.601 301.25V341.428C243.601 390.368 283.229 430.041 332.113 430.041H367.367C396.78 430.041 420.625 453.913 420.625 483.36M420.625 537.21H308.477C280.209 537.21 257.293 560.005 257.293 588.123C257.293 616.241 280.209 639.035 308.477 639.035H354.764L420.625 537.21ZM229.275 816.25H222.59C202.865 816.25 186.875 800.239 186.875 780.498C186.875 760.749 202.865 744.737 222.59 744.737H302.327C331.471 744.737 355.097 721.085 355.097 691.906L229.275 816.25Z" stroke="#DC785F" stroke-width="13" stroke-linecap="round" stroke-linejoin="round" />
			<path d="M367.5 204.375C381.307 204.375 392.5 193.182 392.5 179.375C392.5 165.568 381.307 154.375 367.5 154.375C353.693 154.375 342.5 165.568 342.5 179.375C342.5 193.182 353.693 204.375 367.5 204.375Z" stroke="#A64A35" stroke-width="13" stroke-linecap="round" stroke-linejoin="round" />
			<path d="M436.25 716.875C456.27 716.875 472.5 700.785 472.5 680.938C472.5 661.09 456.27 645 436.25 645C416.23 645 400 661.09 400 680.938C400 700.785 416.23 716.875 436.25 716.875Z" stroke="#FFDABD" stroke-width="13" stroke-linecap="round" stroke-linejoin="round" />
			<path d="M115 133.75C136.746 133.75 154.375 116.121 154.375 94.375C154.375 72.6288 136.746 55 115 55C93.2538 55 75.625 72.6288 75.625 94.375C75.625 116.121 93.2538 133.75 115 133.75Z" stroke="#A64A35" stroke-width="13" stroke-linecap="round" stroke-linejoin="round" />
			<path d="M115.312 180C163.81 180 203.125 141.245 203.125 93.4375C203.125 45.6303 163.81 6.875 115.312 6.875C66.8153 6.875 27.5 45.6303 27.5 93.4375" stroke="#721D0E" stroke-width="13" stroke-linecap="round" stroke-linejoin="round" />
			<path d="M819.506 699.036C806.165 748.92 835.026 800.008 883.967 813.149C932.907 826.282 983.403 796.493 996.744 746.609C1010.09 696.725 981.224 645.639 932.284 632.5" stroke="#A64A35" stroke-width="13" stroke-linecap="round" stroke-linejoin="round" />
			<path d="M366.875 480.625H301.377C280.419 480.625 261.025 487.876 245.223 500.185M301.144 691.875C248.046 691.875 205 644.728 205 586.57C205 566.375 210.19 547.508 219.189 531.481L301.144 691.875Z" stroke="#DC785F" stroke-width="13" stroke-linecap="round" stroke-linejoin="round" />
			<path d="M205.312 192.5C185.465 192.5 169.375 208.589 169.375 228.438C169.375 248.286 185.465 264.375 205.312 264.375C225.16 264.375 241.25 248.286 241.25 228.438V192.5" stroke="#A64A35" stroke-width="13" stroke-linecap="round" stroke-linejoin="round" />
			<path d="M216.25 -17.8125C216.25 8.59345 237.517 30 263.75 30C289.983 30 311.25 8.59345 311.25 -17.8125C311.25 -44.2186 289.983 -65.625 263.75 -65.625H216.25" stroke="#FFDABD" stroke-width="13" stroke-linecap="round" stroke-linejoin="round" />
			<path d="M44.6875 475.364C21.7332 475.364 3.125 456.954 3.125 434.244C3.125 411.534 21.7332 393.125 44.6875 393.125C67.642 393.125 86.25 411.534 86.25 434.244V560" stroke="#A64A35" stroke-width="13" stroke-linecap="round" stroke-linejoin="round" />
			<path d="M913.743 477.5C913.743 498.556 930.537 515.625 951.25 515.625C971.963 515.625 988.75 498.556 988.75 477.5C988.75 456.444 971.963 439.375 951.25 439.375H825.625" stroke="#A64A35" stroke-width="13" stroke-linecap="round" stroke-linejoin="round" />
			<path d="M603.75 21.1192C581.659 21.1192 563.75 38.777 563.75 60.5595C563.75 82.342 581.659 99.9998 603.75 99.9998C625.842 99.9998 643.75 82.342 643.75 60.5595V-66.25" stroke="#FFA88D" stroke-width="13" stroke-linecap="round" stroke-linejoin="round" />
			<path d="M571.824 780C571.824 759.979 587.926 743.75 607.787 743.75C627.65 743.75 643.75 759.979 643.75 780C643.75 800.021 627.65 816.25 607.787 816.25H550.625" stroke="#A64A35" stroke-width="13" stroke-linecap="round" stroke-linejoin="round" />
			<path d="M680.938 285.361C700.785 285.361 716.875 301.37 716.875 321.118C716.875 340.866 700.785 356.875 680.938 356.875C661.09 356.875 645 340.866 645 321.118V187.5" stroke="#DC785F" stroke-width="13" stroke-linecap="round" stroke-linejoin="round" />
			<path d="M39.0625 289.193C19.2147 289.193 3.125 305.043 3.125 324.596C3.125 344.15 19.2147 360 39.0625 360C58.9102 360 74.9999 344.15 74.9999 324.596V180" stroke="#DC785F" stroke-width="13" stroke-linecap="round" stroke-linejoin="round" />
			<path d="M430.44 180C430.44 144.447 402.079 115.625 367.095 115.625C332.111 115.625 303.75 144.447 303.75 180C303.75 215.553 332.111 244.375 367.095 244.375H533.125" stroke="#721D0E" stroke-width="13" stroke-linecap="round" stroke-linejoin="round" />
			<path d="M936.652 388.125C971.643 388.125 1000 359.303 1000 323.75C1000 288.197 971.643 259.375 936.652 259.375H770.625" stroke="#A64A35" stroke-width="13" stroke-linecap="round" stroke-linejoin="round" />
			<path fill-rule="evenodd" clip-rule="evenodd" d="M691.875 43.4375C691.875 10.1276 718.587 -16.875 751.538 -16.875H812.837C845.79 -16.875 872.5 10.1276 872.5 43.4375C872.5 76.7473 845.79 103.75 812.837 103.75H751.538C718.587 103.75 691.875 76.7473 691.875 43.4375Z" stroke="#DC785F" stroke-width="13" stroke-linecap="round" stroke-linejoin="round" />
			<path fill-rule="evenodd" clip-rule="evenodd" d="M166.562 478.125C146.024 478.125 129.375 461.503 129.375 441V335.25C129.375 314.747 146.024 298.125 166.562 298.125C187.101 298.125 203.75 314.747 203.75 335.25V441C203.75 461.503 187.101 478.125 166.562 478.125Z" stroke="#721D0E" stroke-width="13" stroke-linecap="round" stroke-linejoin="round" />
			<path d="M517.5 430.938V375.104C517.5 359.168 530.512 346.25 546.562 346.25C562.613 346.25 575.625 359.168 575.625 375.104V486.771C575.625 502.707 562.613 515.625 546.562 515.625C530.512 515.625 517.5 502.707 517.5 486.771V473.281" stroke="#FFDABD" stroke-width="13" stroke-linecap="round" stroke-linejoin="round" />
			<path d="M571.249 132.457V137.324C571.249 165.036 548.724 187.5 520.937 187.5C493.151 187.5 470.625 165.036 470.625 137.324V-15.4493C470.625 -43.1606 493.151 -65.625 520.937 -65.625C548.724 -65.625 571.249 -43.1606 571.249 -15.4493V-13.9516" stroke="#721D0E" stroke-width="13" stroke-linecap="round" stroke-linejoin="round" />
			<path d="M44.8438 528.75H41.837C20.457 528.75 3.125 546.099 3.125 567.5C3.125 588.901 20.4569 606.25 41.837 606.25H131.288C152.668 606.25 170 588.901 170 567.5C170 546.099 152.668 528.75 131.288 528.75H128.281" stroke="#721D0E" stroke-width="13" stroke-linecap="round" stroke-linejoin="round" />
			<path d="M469.375 346.25V491.023C469.375 534.296 504.772 569.375 548.438 569.375C592.103 569.375 627.5 534.296 627.5 491.023V456.818" stroke="#A64A35" stroke-width="13" stroke-linecap="round" stroke-linejoin="round" />
			<path d="M310.625 591.25H440.501C489.93 591.25 530 631.544 530 681.25C530 730.953 489.93 771.25 440.501 771.25H401.43" stroke="#A64A35" stroke-width="13" stroke-linecap="round" stroke-linejoin="round" />
			<path d="M366.25 371.875H335.508C314.862 371.875 298.125 355.085 298.125 334.375C298.125 313.665 314.862 296.875 335.508 296.875H396.992C417.638 296.875 434.375 313.665 434.375 334.375V337.706C434.375 356.577 419.125 371.875 400.312 371.875" stroke="#FFA88D" stroke-width="13" stroke-linecap="round" stroke-linejoin="round" />
			<path d="M680.937 228.75H716.051C739.631 228.75 758.75 210.701 758.75 188.438C758.75 166.174 739.631 148.125 716.051 148.125H645.824C622.242 148.125 603.125 166.174 603.125 188.438" stroke="#A64A35" stroke-width="13" stroke-linecap="round" stroke-linejoin="round" />
			<path d="M421.875 60.625H337.699C284.432 60.625 241.25 103.997 241.25 157.5" stroke="#A64A35" stroke-width="13" stroke-linecap="round" stroke-linejoin="round" />
			<path d="M905.938 688.025C925.785 688.025 941.875 704 941.875 723.7C941.875 743.4 925.785 759.374 905.938 759.374C886.09 759.374 870 743.4 870 723.7V491.25" stroke="#FFDABD" stroke-width="13" stroke-linecap="round" stroke-linejoin="round" />
			<path d="M636.875 711.25C636.875 674.662 666.154 645 702.271 645H817.499" stroke="#A64A35" stroke-width="13" stroke-linecap="round" stroke-linejoin="round" />
			<path d="M466.875 296.875H528.358C569.651 296.875 603.126 263.296 603.126 221.875" stroke="#FFA88D" stroke-width="13" stroke-linecap="round" stroke-linejoin="round" />
			<path d="M825.625 492.5V526.097C825.625 560.009 798.124 587.5 764.195 587.5H716.25" stroke="#FFA88D" stroke-width="13" stroke-linecap="round" stroke-linejoin="round" />
			<path d="M941.875 325H889.371C851.402 325 820.625 356.06 820.625 394.375" stroke="#DC785F" stroke-width="13" stroke-linecap="round" stroke-linejoin="round" />
			<path d="M136.25 816.25V759.301C136.25 726.512 161.86 699.044 196.25 691.875" stroke="#A64A35" stroke-width="13" stroke-linecap="round" stroke-linejoin="round" />
			<path d="M27.8125 137.5C27.8125 143.321 27.8125 216.592 27.8125 252.5" stroke="#A64A35" stroke-width="13" stroke-linecap="round" stroke-linejoin="round" />
			<path d="M680.312 401.875C680.312 406.683 680.312 467.212 680.312 496.875" stroke="#A64A35" stroke-width="13" stroke-linecap="round" stroke-linejoin="round" />
			<path d="M584.062 660C584.062 661.961 584.062 686.648 584.062 698.75" stroke="#A64A35" stroke-width="13" stroke-linecap="round" stroke-linejoin="round" />
			<path d="M596.25 616.25H612.985C647.567 616.25 675.6 588.251 675.6 553.711M770.625 300.625V389.582C770.625 403.579 759.19 414.916 745.085 414.916C730.979 414.916 719.544 426.263 719.544 440.261V445.518C719.544 459.514 730.979 470.862 745.085 470.862C759.19 470.862 770.625 482.209 770.625 496.207V502.026C770.625 519.238 756.564 533.191 739.22 533.191H722.949H699.112L770.625 300.625Z" stroke="#721D0E" stroke-width="13" stroke-linecap="round" stroke-linejoin="round" />
			<path d="M925.625 177.451V190.127C925.625 208.006 911.085 222.5 893.161 222.5C875.229 222.5 860.689 208.006 860.689 190.127V179.627C860.689 161.884 846.262 147.5 828.473 147.5C810.677 147.5 796.25 161.884 796.25 179.627V192.55" stroke="#FFDABD" stroke-width="13" stroke-linecap="round" stroke-linejoin="round" />
			<path fill-rule="evenodd" clip-rule="evenodd" d="M680.625 737.479C680.625 712.295 701.052 691.875 726.25 691.875C751.446 691.875 771.875 712.295 771.875 737.479V770.646C771.875 795.83 751.446 816.25 726.25 816.25C701.052 816.25 680.625 795.83 680.625 770.646V737.479Z" stroke="#FFA88D" stroke-width="13" stroke-linecap="round" stroke-linejoin="round" />
		</g>
	</g>
	<defs>
		<clipPath id="clip0">
			<rect width="1000" height="750" fill="white" />
		</clipPath>
	</defs>
</svg>
