<svg width="534" height="400" viewBox="0 0 534 400" fill="none" xmlns="http://www.w3.org/2000/svg">
	<path d="M463.013 310.547H70.32C70.1432 310.547 69.9736 310.476 69.8486 310.351C69.7236 310.226 69.6533 310.057 69.6533 309.88C69.6567 309.704 69.7281 309.537 69.8524 309.412C69.9766 309.288 70.1442 309.217 70.32 309.213H463.013C463.189 309.217 463.357 309.288 463.481 309.412C463.605 309.537 463.677 309.704 463.68 309.88C463.68 310.057 463.61 310.226 463.485 310.351C463.36 310.476 463.19 310.547 463.013 310.547Z" fill="#D1D3D4" />
	<path d="M406.199 51.9319L126.161 53.1538C114.755 53.2035 105.549 62.4906 105.598 73.897L106.39 255.362C106.44 266.768 115.727 275.975 127.133 275.925L407.171 274.703C418.577 274.653 427.784 265.366 427.734 253.96L426.942 72.4949C426.892 61.0885 417.605 51.8821 406.199 51.9319Z" fill="white" />
	<path d="M127.04 276.547C121.41 276.547 116.008 274.321 112.011 270.355C108.015 266.389 105.749 261.004 105.707 255.373L104.933 73.9068C104.921 71.1153 105.459 68.3487 106.517 65.7653C107.575 63.1819 109.131 60.8324 111.098 58.851C113.064 56.8697 115.402 55.2954 117.977 54.2183C120.553 53.1411 123.315 52.5822 126.107 52.5734L406.107 51.3601H406.2C411.819 51.3775 417.204 53.6109 421.186 57.5753C425.167 61.5396 427.425 66.9148 427.467 72.5334L428.24 254C428.25 256.791 427.711 259.557 426.653 262.139C425.594 264.722 424.038 267.071 422.072 269.052C420.105 271.033 417.768 272.607 415.194 273.685C412.619 274.763 409.858 275.323 407.067 275.333L127.067 276.533L127.04 276.547ZM406.213 52.5468L126.213 53.7468C123.576 53.7467 120.964 54.2684 118.529 55.2818C116.093 56.2953 113.883 57.7804 112.024 59.6517C110.165 61.523 108.695 63.7436 107.697 66.1855C106.7 68.6274 106.196 71.2425 106.213 73.8801L107 255.347C107 260.651 109.107 265.738 112.858 269.489C116.609 273.24 121.696 275.347 127 275.347H127.08L407.08 274.133C409.717 274.133 412.327 273.612 414.761 272.6C417.196 271.587 419.406 270.103 421.265 268.233C423.123 266.363 424.594 264.144 425.592 261.704C426.59 259.264 427.096 256.65 427.08 254.013L426.293 72.5468C426.293 67.2424 424.186 62.1554 420.435 58.4046C416.685 54.6539 411.598 52.5468 406.293 52.5468H406.213Z" fill="#231F20" />
	<path d="M322.053 313.893L302.133 274.92L224.467 275.253L248.147 321.547L219.027 321.667C218.388 321.669 217.756 321.796 217.167 322.043C216.578 322.289 216.044 322.649 215.594 323.102C215.144 323.556 214.789 324.093 214.547 324.684C214.306 325.275 214.183 325.908 214.187 326.547V326.547C214.188 327.184 214.316 327.815 214.561 328.403C214.807 328.991 215.166 329.525 215.618 329.975C216.069 330.424 216.605 330.78 217.195 331.023C217.784 331.265 218.416 331.389 219.053 331.387L311.56 331.094C313.58 331.086 315.565 330.562 317.325 329.57C319.085 328.577 320.562 327.151 321.614 325.426C322.666 323.702 323.259 321.736 323.336 319.717C323.413 317.698 322.971 315.693 322.053 313.893V313.893Z" fill="white" />
	<path d="M219.04 332C217.957 332.003 216.898 331.685 215.997 331.085C215.095 330.486 214.392 329.632 213.976 328.632C213.561 327.632 213.451 326.532 213.662 325.47C213.873 324.408 214.394 323.432 215.16 322.667C215.661 322.152 216.26 321.744 216.922 321.467C217.584 321.19 218.296 321.049 219.013 321.053L247.147 320.933L224 275.533C223.952 275.442 223.928 275.339 223.931 275.236C223.934 275.132 223.964 275.031 224.018 274.943C224.071 274.854 224.147 274.781 224.237 274.73C224.328 274.679 224.43 274.653 224.533 274.653L302.2 274.32C302.31 274.318 302.418 274.347 302.513 274.404C302.607 274.46 302.683 274.542 302.733 274.64L322.667 313.614C323.637 315.506 324.106 317.615 324.027 319.74C323.948 321.865 323.325 323.934 322.217 325.749C321.108 327.564 319.553 329.064 317.698 330.105C315.844 331.146 313.753 331.693 311.627 331.693L219.12 332H219.04ZM225.467 275.867L248.693 321.2C248.742 321.293 248.768 321.396 248.768 321.5C248.768 321.605 248.742 321.708 248.693 321.8C248.638 321.888 248.561 321.962 248.47 322.013C248.38 322.064 248.278 322.092 248.173 322.094L219.053 322.213C218.476 322.181 217.897 322.267 217.354 322.466C216.811 322.664 216.314 322.972 215.893 323.37C215.473 323.767 215.138 324.246 214.909 324.778C214.68 325.309 214.562 325.882 214.562 326.46C214.562 327.039 214.68 327.611 214.909 328.143C215.138 328.674 215.473 329.153 215.893 329.551C216.314 329.948 216.811 330.256 217.354 330.455C217.897 330.653 218.476 330.739 219.053 330.707V330.707L311.56 330.413C313.478 330.41 315.363 329.914 317.035 328.973C318.707 328.033 320.109 326.679 321.109 325.042C322.108 323.404 322.67 321.538 322.742 319.621C322.814 317.704 322.394 315.801 321.52 314.094L301.76 275.427L225.467 275.867Z" fill="#231F20" />
	<path d="M219.027 322.28C218.881 322.259 218.748 322.185 218.652 322.074C218.556 321.963 218.503 321.821 218.503 321.674C218.503 321.526 218.556 321.384 218.652 321.273C218.748 321.162 218.881 321.088 219.027 321.067L312.36 320.667C312.447 320.654 312.536 320.66 312.621 320.684C312.705 320.709 312.784 320.751 312.851 320.809C312.917 320.867 312.971 320.938 313.008 321.018C313.044 321.098 313.063 321.185 313.063 321.273C313.063 321.362 313.044 321.449 313.008 321.529C312.971 321.609 312.917 321.68 312.851 321.738C312.784 321.796 312.705 321.838 312.621 321.863C312.536 321.887 312.447 321.893 312.36 321.88L219.027 322.28Z" fill="#231F20" />
	<path d="M112.24 84.64C112.063 84.64 111.894 84.5698 111.769 84.4448C111.644 84.3198 111.573 84.1502 111.573 83.9734C111.573 83.7966 111.644 83.627 111.769 83.502C111.894 83.377 112.063 83.3067 112.24 83.3067L420.107 81.9734C420.283 81.9734 420.453 82.0436 420.578 82.1686C420.703 82.2937 420.773 82.4632 420.773 82.6401C420.773 82.8169 420.703 82.9864 420.578 83.1115C420.453 83.2365 420.283 83.3067 420.107 83.3067L112.227 84.64H112.24Z" fill="#D1D3D4" />
	<path d="M112.92 243.44C112.744 243.437 112.577 243.365 112.452 243.241C112.328 243.117 112.257 242.949 112.253 242.773C112.253 242.597 112.324 242.427 112.449 242.302C112.574 242.177 112.743 242.107 112.92 242.107L420.8 240.773C420.976 240.777 421.143 240.848 421.268 240.972C421.392 241.097 421.463 241.264 421.467 241.44C421.467 241.617 421.396 241.786 421.271 241.912C421.146 242.037 420.977 242.107 420.8 242.107L112.92 243.44V243.44Z" fill="#D1D3D4" />
	<path d="M249.733 69.48C249.557 69.48 249.387 69.4098 249.262 69.2847C249.137 69.1597 249.067 68.9901 249.067 68.8133C249.067 68.6365 249.137 68.467 249.262 68.3419C249.387 68.2169 249.557 68.1467 249.733 68.1467L270.76 68C270.936 68.0034 271.103 68.0747 271.228 68.199C271.352 68.3233 271.423 68.4909 271.427 68.6667C271.427 68.8435 271.356 69.013 271.231 69.1381C271.106 69.2631 270.937 69.3333 270.76 69.3333L249.72 69.4267L249.733 69.48Z" fill="#D1D3D4" />
	<path d="M230.217 211.362L217.197 198.341L107.803 307.735L120.823 320.756L230.217 211.362Z" fill="#231F20" />
	<path d="M120.813 321.413C120.639 321.415 120.472 321.348 120.347 321.227L107.32 308.2C107.198 308.076 107.129 307.908 107.129 307.733C107.129 307.559 107.198 307.391 107.32 307.267L216.72 197.933C216.845 197.811 217.012 197.743 217.187 197.743C217.361 197.743 217.529 197.811 217.653 197.933L230.68 210.96C230.802 211.085 230.871 211.252 230.871 211.427C230.871 211.601 230.802 211.769 230.68 211.893L121.347 321.227C121.276 321.294 121.192 321.345 121.1 321.377C121.008 321.409 120.91 321.422 120.813 321.413V321.413ZM108.733 307.733L120.813 319.813L229.333 211.36L217.253 199.28L108.733 307.733Z" fill="#231F20" />
	<path d="M180.596 252.591L175.957 247.952C170.49 242.485 161.626 242.485 156.158 247.952L86.3904 317.72C80.9231 323.187 80.9231 332.052 86.3904 337.519L91.029 342.158C96.4964 347.625 105.361 347.625 110.828 342.158L180.596 272.39C186.063 266.922 186.063 258.058 180.596 252.591Z" fill="#DC785F" />
	<path d="M264.32 259.227C316.787 259.227 359.32 216.694 359.32 164.227C359.32 111.76 316.787 69.2268 264.32 69.2268C211.853 69.2268 169.32 111.76 169.32 164.227C169.32 216.694 211.853 259.227 264.32 259.227Z" fill="white" />
	<path d="M264.32 259.84C242.197 259.833 220.761 252.156 203.664 238.116C186.566 224.076 174.866 204.543 170.556 182.844C166.246 161.145 169.592 138.623 180.026 119.115C190.459 99.6066 207.334 84.3194 227.775 75.8578C248.216 67.3962 270.958 66.2837 292.127 72.7098C313.296 79.1359 331.582 92.703 343.87 111.1C356.158 129.496 361.687 151.584 359.515 173.6C357.343 195.617 347.605 216.199 331.96 231.84C323.086 240.733 312.542 247.785 300.934 252.59C289.326 257.395 276.883 259.859 264.32 259.84V259.84ZM264.32 69.9334C242.504 69.9385 221.364 77.5084 204.504 91.3529C187.643 105.197 176.105 124.46 171.855 145.858C167.606 167.257 170.907 189.466 181.198 208.703C191.488 227.94 208.13 243.013 228.289 251.355C248.447 259.697 270.874 260.79 291.749 254.449C312.623 248.108 330.653 234.726 342.766 216.581C354.879 198.437 360.326 176.653 358.178 154.943C356.03 133.233 346.42 112.939 330.987 97.52C322.236 88.7613 311.843 81.8159 300.403 77.082C288.963 72.3481 276.701 69.9188 264.32 69.9334V69.9334Z" fill="#231F20" />
	<path d="M264.32 243.387C308.039 243.387 343.48 207.946 343.48 164.227C343.48 120.508 308.039 85.0669 264.32 85.0669C220.601 85.0669 185.16 120.508 185.16 164.227C185.16 207.946 220.601 243.387 264.32 243.387Z" fill="white" />
	<path d="M264.32 244C245.858 243.988 227.972 237.575 213.709 225.854C199.445 214.133 189.687 197.83 186.096 179.721C182.506 161.612 185.305 142.818 194.017 126.542C202.729 110.265 216.815 97.5128 233.876 90.4575C250.936 83.4021 269.914 82.4802 287.578 87.8488C305.242 93.2173 320.498 104.544 330.746 119.9C340.995 135.255 345.603 153.689 343.784 172.061C341.966 190.432 333.834 207.605 320.773 220.653C313.365 228.072 304.564 233.954 294.876 237.96C285.188 241.967 274.804 244.019 264.32 244ZM264.32 85.7468C246.167 85.7572 228.579 92.0613 214.553 103.585C200.526 115.109 190.93 131.14 187.398 148.946C183.866 166.752 186.617 185.232 195.182 201.237C203.747 217.243 217.597 229.783 234.372 236.722C251.147 243.661 269.808 244.568 287.177 239.291C304.546 234.013 319.548 222.876 329.627 207.778C339.705 192.68 344.237 174.554 342.45 156.489C340.663 138.424 332.668 121.538 319.827 108.707C312.541 101.415 303.887 95.6349 294.362 91.697C284.837 87.7592 274.627 85.7416 264.32 85.7601V85.7468Z" fill="#231F20" />
	<path d="M287.707 139.493H287.627C287.539 139.484 287.455 139.456 287.378 139.413C287.302 139.37 287.235 139.312 287.181 139.242C287.128 139.172 287.089 139.093 287.067 139.007C287.045 138.922 287.04 138.834 287.053 138.747C287.249 137.725 287.249 136.675 287.053 135.653C286.893 135.52 285.72 134.773 284.467 134.067C278.28 130.4 274.88 128.12 274.6 126.587C274.565 126.424 274.568 126.256 274.607 126.094C274.646 125.933 274.721 125.782 274.827 125.653C276.067 124.107 284.16 114.987 285.947 113.04L284.96 111.053C284.919 110.976 284.894 110.891 284.887 110.803C284.879 110.716 284.89 110.628 284.917 110.544C284.944 110.461 284.988 110.384 285.046 110.318C285.104 110.252 285.174 110.198 285.253 110.16C285.332 110.121 285.418 110.099 285.505 110.093C285.593 110.088 285.681 110.099 285.764 110.128C285.847 110.156 285.923 110.201 285.989 110.259C286.055 110.317 286.108 110.388 286.147 110.467L287.333 112.84C287.399 112.958 287.425 113.094 287.408 113.229C287.391 113.363 287.332 113.488 287.24 113.587C287.147 113.693 277.48 124.507 275.92 126.413C276.307 127.667 282.707 131.48 285.147 132.92C286.214 133.446 287.217 134.095 288.133 134.853C288.733 135.667 288.533 137.96 288.427 138.853C288.423 138.943 288.402 139.032 288.363 139.113C288.325 139.195 288.271 139.267 288.203 139.327C288.136 139.387 288.057 139.433 287.972 139.461C287.887 139.49 287.796 139.501 287.707 139.493Z" fill="#231F20" />
	<path d="M265.253 138.813C265.131 138.816 265.011 138.784 264.907 138.72C262.947 137.493 253.16 131.24 252.827 128.307C252.792 128.094 252.809 127.877 252.876 127.673C252.943 127.468 253.059 127.283 253.213 127.133L265.333 114.973L263.68 113.067C263.57 112.928 263.517 112.753 263.532 112.578C263.547 112.402 263.629 112.238 263.76 112.12C263.895 112.008 264.068 111.954 264.243 111.969C264.418 111.983 264.58 112.067 264.693 112.2L266.747 114.573C266.858 114.698 266.92 114.859 266.92 115.027C266.92 115.194 266.858 115.355 266.747 115.48L254.16 128.067C254.333 129.84 260.96 134.733 265.613 137.587C265.762 137.682 265.866 137.833 265.903 138.005C265.941 138.178 265.909 138.358 265.813 138.507C265.755 138.602 265.673 138.681 265.574 138.735C265.476 138.789 265.365 138.816 265.253 138.813Z" fill="#231F20" />
	<path d="M241.333 145.654C241.201 145.657 241.071 145.62 240.959 145.549C240.847 145.478 240.76 145.375 240.707 145.254L235.693 133.254C232.413 132.72 223.533 131.04 222.627 128.614C222.536 128.359 222.515 128.085 222.567 127.82C222.619 127.555 222.741 127.309 222.92 127.107C225.053 124.547 226.267 118.467 226.28 118.4C226.297 118.314 226.332 118.233 226.381 118.16C226.43 118.088 226.493 118.026 226.566 117.977C226.639 117.929 226.72 117.896 226.806 117.879C226.892 117.862 226.981 117.863 227.067 117.88C227.153 117.894 227.235 117.926 227.309 117.973C227.382 118.02 227.445 118.082 227.494 118.155C227.542 118.227 227.576 118.309 227.592 118.394C227.608 118.48 227.606 118.568 227.587 118.654C227.587 118.92 226.253 125.147 223.947 127.987C223.853 128.107 223.867 128.147 223.88 128.174C224.333 129.4 230.667 131.134 236.267 132.027C236.379 132.044 236.484 132.09 236.573 132.16C236.662 132.23 236.731 132.322 236.773 132.427L241.947 144.827C242.01 144.992 242.008 145.175 241.941 145.338C241.874 145.502 241.748 145.634 241.587 145.707C241.5 145.702 241.414 145.684 241.333 145.654V145.654Z" fill="#231F20" />
	<path d="M236.92 178.04C236.92 178.04 243.24 194.92 271.587 194.213C299.933 193.507 332.613 158.36 329.32 154.373C326.027 150.387 314.72 149.44 314.72 149.44C314.72 149.44 323.627 144.52 318.947 142.173C314.267 139.827 244.627 150.373 234.307 156.24C223.987 162.107 236.92 178.04 236.92 178.04Z" fill="#DC785F" />
	<path d="M288.333 185.493C291.792 184 295.093 182.164 298.187 180.013C306.187 174.493 312.947 166.093 313.187 156.413C313.321 154.843 312.982 153.269 312.213 151.893C311.309 150.704 310.14 149.741 308.8 149.08C306.484 147.577 303.983 146.381 301.36 145.52C298.227 144.798 294.995 144.613 291.8 144.973C277.88 145.907 262.88 148.467 251.08 156.467C244.147 161.187 233.6 173.227 241.227 181.347C248.2 188.76 261.453 190.24 271 189.64C276.973 189.262 282.836 187.859 288.333 185.493V185.493Z" fill="#231F20" />
	<path d="M267.293 190.414C260.267 190.414 247.76 189.267 240.747 181.8C239.689 180.722 238.891 179.418 238.413 177.985C237.935 176.553 237.789 175.031 237.987 173.534C238.72 166.867 245.093 159.734 250.707 155.92C263.68 147.12 280.347 145.08 291.76 144.307C295.027 143.946 298.331 144.14 301.533 144.88C304.214 145.754 306.768 146.973 309.133 148.507C310.567 149.217 311.814 150.254 312.773 151.534C313.609 153.022 313.985 154.725 313.853 156.427C313.64 165.16 308.067 173.96 298.573 180.56C295.441 182.736 292.1 184.594 288.6 186.107V186.107C283.034 188.511 277.092 189.927 271.04 190.294C270.147 190.347 268.853 190.414 267.293 190.414ZM295.48 145.494C294.227 145.494 293 145.494 291.853 145.627C280.6 146.387 264.16 148.4 251.453 157.014C246.973 160.067 240.04 167.014 239.307 173.68C239.137 174.987 239.266 176.315 239.684 177.564C240.102 178.814 240.798 179.952 241.72 180.894C249.893 189.587 266.16 189.28 270.96 188.974C276.861 188.616 282.655 187.231 288.08 184.88C291.496 183.404 294.757 181.59 297.813 179.467C306.96 173.107 312.32 164.707 312.48 156.4C312.618 154.964 312.321 153.519 311.627 152.254C310.771 151.133 309.672 150.222 308.413 149.587C306.151 148.108 303.703 146.933 301.133 146.094C299.285 145.639 297.383 145.437 295.48 145.494V145.494Z" fill="#231F20" />
	<path d="M269.507 185.334C297.4 185.107 320.613 161.187 309.587 148.76C298.56 136.333 258.027 123.613 235.04 149.467C218.373 168.173 241.6 185.547 269.507 185.334Z" fill="white" />
	<path d="M268.933 185.973C250.787 185.973 234.893 178.773 230.16 168.36C228.187 164 227.333 157.107 234.547 149C245.76 136.387 260.227 133.733 270.413 133.733C287.747 133.733 303.747 141.24 310.04 148.293C313.4 152.093 313.92 157.187 311.48 162.653C306.44 173.987 289.347 185.813 269.453 185.973H268.933ZM270.413 135.067C260.507 135.067 246.413 137.64 235.533 149.88C230.2 155.88 228.773 162.08 231.373 167.813C235.827 177.613 251.573 184.64 268.96 184.64H269.493C288.853 184.48 305.493 173.067 310.32 162.12C311.88 158.6 312.987 153.507 309.093 149.173C303.04 142.347 287.44 135.08 270.427 135.067H270.413Z" fill="#231F20" />
	<path d="M239.174 184.198C248.428 178.855 251.727 167.245 246.542 158.266C241.358 149.287 229.654 146.339 220.401 151.681C211.148 157.024 207.849 168.634 213.033 177.613C218.217 186.592 229.921 189.54 239.174 184.198Z" fill="white" />
	<path d="M229.333 187.52C225.928 187.549 222.576 186.679 219.615 184.998C216.653 183.317 214.188 180.885 212.467 177.947V177.947C211.18 175.723 210.358 173.262 210.048 170.711C209.739 168.161 209.949 165.574 210.667 163.107C212.138 158.046 215.507 153.749 220.071 151.113C224.635 148.477 230.041 147.706 235.16 148.96C237.662 149.568 240.016 150.676 242.078 152.219C244.141 153.761 245.869 155.705 247.16 157.934C249.704 162.503 250.332 167.896 248.904 172.928C247.477 177.96 244.112 182.22 239.547 184.774C236.446 186.579 232.921 187.527 229.333 187.52V187.52ZM230.253 149.68C226.912 149.689 223.632 150.581 220.747 152.267C216.459 154.7 213.302 158.723 211.96 163.467C211.278 165.769 211.073 168.186 211.357 170.571C211.641 172.955 212.409 175.256 213.613 177.334V177.334C214.839 179.457 216.471 181.319 218.416 182.812C220.361 184.306 222.582 185.401 224.95 186.036C227.319 186.671 229.789 186.834 232.22 186.514C234.652 186.195 236.996 185.399 239.12 184.174C241.244 182.948 243.106 181.316 244.599 179.371C246.092 177.426 247.187 175.205 247.823 172.837C248.458 170.468 248.62 167.998 248.301 165.567C247.981 163.135 247.186 160.791 245.96 158.667C244.762 156.597 243.159 154.791 241.245 153.357C239.332 151.923 237.149 150.89 234.827 150.32C233.329 149.922 231.789 149.707 230.24 149.68H230.253Z" fill="#231F20" />
	<path d="M299.813 198C299.367 198.008 298.922 197.981 298.48 197.92C297.84 197.787 296.8 196.587 291.053 189.4C286.787 184.067 280.92 176.693 279.307 175.813C279.199 175.76 279.08 175.733 278.96 175.733C278.84 175.733 278.721 175.76 278.613 175.813C277.893 176.12 276.387 177.587 274.507 184.027L274.4 184.387C274.342 184.556 274.22 184.695 274.061 184.775C273.901 184.855 273.716 184.868 273.547 184.813C273.381 184.756 273.245 184.635 273.168 184.478C273.09 184.321 273.078 184.14 273.133 183.973L273.227 183.653C274.8 178.32 276.4 175.307 278.107 174.587C278.398 174.46 278.714 174.402 279.031 174.419C279.348 174.435 279.657 174.524 279.933 174.68C281.667 175.613 286.067 181.04 292.107 188.6C294.218 191.413 296.474 194.115 298.867 196.693C301.19 196.717 303.513 196.624 305.827 196.413C305.915 196.404 306.003 196.413 306.088 196.439C306.172 196.465 306.251 196.508 306.318 196.566C306.385 196.623 306.44 196.694 306.48 196.773C306.519 196.852 306.542 196.938 306.547 197.027C306.558 197.201 306.5 197.373 306.385 197.506C306.27 197.638 306.108 197.72 305.933 197.733C305.4 197.733 301.92 198 299.813 198Z" fill="#231F20" />
	<path d="M223.32 172.147C223.143 172.147 222.974 172.077 222.849 171.952C222.724 171.827 222.653 171.657 222.653 171.48C222.653 171.303 222.724 171.134 222.849 171.009C222.974 170.884 223.143 170.813 223.32 170.813L233.867 170.107C234.043 170.099 234.215 170.161 234.347 170.277C234.478 170.394 234.56 170.558 234.573 170.733C234.579 170.821 234.567 170.909 234.538 170.992C234.51 171.075 234.465 171.151 234.407 171.217C234.348 171.283 234.278 171.336 234.199 171.374C234.12 171.413 234.034 171.435 233.947 171.44L223.4 172.147H223.32Z" fill="#231F20" />
	<path d="M227.067 165.614C227.533 166.56 227.773 177.107 227.773 177.107Z" fill="white" />
	<path d="M227.773 177.773C227.599 177.773 227.431 177.705 227.307 177.583C227.182 177.461 227.11 177.295 227.107 177.12C227.108 173.373 226.894 169.629 226.467 165.907C226.401 165.745 226.399 165.565 226.461 165.402C226.523 165.238 226.644 165.105 226.8 165.027C226.954 164.952 227.131 164.942 227.293 164.996C227.455 165.051 227.589 165.167 227.667 165.32C228.147 166.28 228.373 173.867 228.44 177.093C228.44 177.269 228.372 177.438 228.25 177.565C228.128 177.692 227.962 177.767 227.787 177.773H227.773Z" fill="#231F20" />
	<path d="M215.813 162.294C215.641 162.294 215.475 162.227 215.351 162.108C215.227 161.988 215.154 161.826 215.147 161.654C215.143 161.565 215.157 161.476 215.188 161.393C215.219 161.31 215.267 161.234 215.328 161.17C215.388 161.105 215.462 161.053 215.543 161.017C215.624 160.981 215.711 160.962 215.8 160.96L225.133 160.734C225.22 160.732 225.307 160.747 225.387 160.779C225.468 160.811 225.542 160.859 225.604 160.92C225.666 160.981 225.715 161.054 225.749 161.134C225.783 161.214 225.8 161.3 225.8 161.387C225.804 161.561 225.739 161.73 225.619 161.858C225.499 161.985 225.334 162.06 225.16 162.067L215.827 162.294H215.813Z" fill="#231F20" />
	<path d="M220 166.747C219.914 166.75 219.828 166.736 219.747 166.706C219.666 166.675 219.592 166.629 219.53 166.569C219.468 166.509 219.418 166.437 219.384 166.358C219.351 166.278 219.333 166.193 219.333 166.107L219.093 155.547C219.092 155.459 219.107 155.372 219.139 155.291C219.171 155.209 219.218 155.134 219.279 155.071C219.34 155.008 219.412 154.958 219.492 154.923C219.573 154.887 219.659 154.868 219.747 154.867V154.867C219.92 154.87 220.086 154.939 220.21 155.061C220.334 155.182 220.407 155.347 220.413 155.52L220.653 166.067C220.655 166.154 220.64 166.241 220.608 166.323C220.576 166.404 220.528 166.479 220.467 166.542C220.407 166.605 220.334 166.656 220.254 166.691C220.174 166.726 220.088 166.745 220 166.747V166.747Z" fill="#231F20" />
	<path d="M272 173.64C271.826 173.605 271.673 173.502 271.573 173.355C271.473 173.208 271.435 173.028 271.467 172.853C271.64 171.96 275.467 150.973 253.373 143.387C253.207 143.326 253.071 143.203 252.993 143.044C252.916 142.885 252.904 142.701 252.96 142.533C253.018 142.368 253.138 142.232 253.295 142.154C253.452 142.077 253.634 142.065 253.8 142.12C265.907 146.293 270.427 154.493 272.08 160.653C273.18 164.71 273.421 168.952 272.787 173.107C272.751 173.281 272.649 173.434 272.502 173.534C272.355 173.633 272.175 173.671 272 173.64Z" fill="#D1D3D4" />
	<path d="M290.093 167.4C290.023 167.413 289.951 167.413 289.88 167.4C289.715 167.343 289.578 167.222 289.501 167.065C289.424 166.908 289.411 166.726 289.467 166.56C289.467 166.413 294.253 151.653 277.467 139.187C277.328 139.079 277.237 138.921 277.212 138.747C277.187 138.573 277.231 138.396 277.333 138.253C277.439 138.112 277.597 138.019 277.772 137.994C277.947 137.969 278.125 138.014 278.267 138.12C287.413 144.933 290.267 152.387 291.12 157.453C291.695 160.624 291.54 163.885 290.667 166.987C290.621 167.103 290.542 167.204 290.441 167.278C290.339 167.351 290.218 167.393 290.093 167.4Z" fill="#D1D3D4" />
	<path d="M273.08 211.627C272.988 211.646 272.892 211.646 272.8 211.627L269.173 209.973C267.147 209.853 245.787 208.507 239.147 205.853C238.68 205.693 238.264 205.41 237.943 205.035C237.622 204.66 237.407 204.206 237.32 203.72C236.307 198.387 249.667 185.747 251.187 184.333C251.249 184.271 251.322 184.221 251.404 184.188C251.485 184.154 251.572 184.136 251.66 184.136C251.748 184.136 251.835 184.154 251.916 184.188C251.998 184.221 252.071 184.271 252.133 184.333C252.196 184.395 252.245 184.469 252.279 184.55C252.313 184.632 252.331 184.719 252.331 184.807C252.331 184.895 252.313 184.982 252.279 185.063C252.245 185.144 252.196 185.218 252.133 185.28C248.133 188.987 237.933 199.493 238.667 203.453C238.716 203.717 238.836 203.962 239.015 204.162C239.194 204.361 239.424 204.508 239.68 204.587C246.347 207.253 269.187 208.587 269.413 208.587C269.493 208.574 269.574 208.574 269.653 208.587L273.4 210.293C273.48 210.329 273.551 210.381 273.611 210.445C273.67 210.509 273.716 210.584 273.746 210.666C273.776 210.748 273.789 210.835 273.784 210.922C273.78 211.009 273.758 211.095 273.72 211.173C273.679 211.309 273.593 211.428 273.478 211.51C273.362 211.592 273.222 211.633 273.08 211.627V211.627Z" fill="#231F20" />
	<path d="M310.387 185.773C306.787 185.773 304.133 174.987 303.387 171.64C303.354 171.466 303.39 171.285 303.487 171.136C303.584 170.988 303.734 170.882 303.907 170.84C304.078 170.808 304.255 170.842 304.401 170.937C304.547 171.031 304.652 171.178 304.693 171.347C306.027 177.707 308.693 184.44 310.373 184.44H310.44C313.04 184.187 322.787 179.694 327.573 177.36C327.668 177.311 327.773 177.285 327.88 177.285C327.987 177.285 328.092 177.311 328.187 177.36L331.92 179.4C331.998 179.441 332.068 179.497 332.124 179.565C332.18 179.633 332.222 179.712 332.247 179.796C332.272 179.881 332.28 179.97 332.269 180.058C332.259 180.146 332.231 180.23 332.187 180.307C332.145 180.384 332.088 180.452 332.02 180.507C331.951 180.563 331.873 180.604 331.789 180.629C331.704 180.653 331.616 180.661 331.529 180.652C331.442 180.642 331.357 180.616 331.28 180.573L327.84 178.667C325.707 179.707 313.813 185.4 310.573 185.734L310.387 185.773Z" fill="#231F20" />
	<path d="M236.427 215.374C228.613 215.374 219.093 210.934 215.947 203.107C214.547 199.574 214.053 194.08 216.253 190.36C217.397 188.627 219.065 187.305 221.013 186.587C221.693 186.254 222.347 185.92 223.08 185.507C223.155 185.461 223.239 185.43 223.326 185.417C223.413 185.403 223.502 185.407 223.587 185.428C223.673 185.449 223.753 185.487 223.824 185.54C223.895 185.592 223.955 185.658 224 185.734C224.089 185.886 224.116 186.068 224.073 186.239C224.031 186.411 223.923 186.56 223.773 186.654C223.027 187.094 222.293 187.44 221.587 187.787C219.882 188.4 218.415 189.539 217.4 191.04C215.507 194.227 215.867 199.28 217.187 202.614C220.2 210.174 229.76 214.374 237.253 214.027C237.342 214.017 237.432 214.027 237.517 214.055C237.602 214.083 237.68 214.129 237.745 214.189C237.811 214.25 237.863 214.324 237.898 214.406C237.932 214.489 237.949 214.578 237.947 214.667C237.95 214.754 237.937 214.842 237.906 214.924C237.876 215.006 237.83 215.082 237.77 215.146C237.711 215.211 237.639 215.263 237.56 215.299C237.48 215.336 237.394 215.357 237.307 215.36L236.427 215.374Z" fill="#D1D3D4" />
	<path d="M206.187 176.52C205.803 176.52 205.42 176.493 205.04 176.44C200.72 175.827 197.04 172.067 195.427 168.827C193.36 164.462 192.911 159.505 194.16 154.84C195.434 150.248 197.948 146.097 201.427 142.84C201.554 142.716 201.725 142.648 201.903 142.651C201.991 142.652 202.077 142.67 202.158 142.705C202.239 142.74 202.312 142.79 202.373 142.853C202.435 142.916 202.483 142.991 202.515 143.073C202.548 143.154 202.564 143.242 202.563 143.33C202.561 143.417 202.543 143.504 202.508 143.585C202.473 143.666 202.423 143.739 202.36 143.8C199.043 146.89 196.651 150.842 195.453 155.213C194.283 159.57 194.699 164.201 196.627 168.28C198.4 171.867 201.96 174.693 205.227 175.16C206.318 175.318 207.431 175.194 208.46 174.799C209.489 174.405 210.401 173.753 211.107 172.907C211.169 172.844 211.242 172.795 211.324 172.761C211.405 172.727 211.492 172.71 211.58 172.71C211.668 172.71 211.755 172.727 211.836 172.761C211.918 172.795 211.991 172.844 212.053 172.907C212.175 173.031 212.244 173.199 212.244 173.373C212.244 173.548 212.175 173.715 212.053 173.84C211.321 174.677 210.419 175.348 209.408 175.81C208.396 176.272 207.298 176.514 206.187 176.52V176.52Z" fill="#D1D3D4" />
	<path d="M386 270.187C381.303 265.975 375.988 262.508 370.24 259.907C369.773 276.76 376.613 292.267 382.933 302.867H403.48" fill="white" />
	<path d="M403.48 303.534H382.933C382.818 303.534 382.705 303.505 382.605 303.449C382.504 303.393 382.42 303.312 382.36 303.214C376.253 292.974 369.093 277.147 369.573 259.894C369.577 259.785 369.607 259.678 369.66 259.583C369.713 259.488 369.789 259.407 369.88 259.347C369.975 259.298 370.08 259.272 370.187 259.272C370.293 259.272 370.399 259.298 370.493 259.347C376.332 261.96 381.73 265.464 386.493 269.734C386.617 269.853 386.69 270.015 386.698 270.186C386.705 270.358 386.645 270.526 386.532 270.655C386.418 270.784 386.26 270.864 386.088 270.879C385.917 270.893 385.747 270.841 385.613 270.734C381.198 266.82 376.262 263.535 370.947 260.974C370.76 277.347 377.52 292.36 383.36 302.307H403.533C403.71 302.307 403.88 302.377 404.005 302.502C404.13 302.627 404.2 302.797 404.2 302.974C404.174 303.141 404.084 303.292 403.951 303.396C403.817 303.5 403.649 303.549 403.48 303.534Z" fill="#231F20" />
	<path d="M415.453 274.667C412.134 258.426 404.758 243.289 394.013 230.667C389.747 243.64 384.907 258.133 386.013 270.187C387.082 281.323 389.468 292.293 393.12 302.867H415.227" fill="white" />
	<path d="M415.213 303.534H393.107C392.97 303.534 392.836 303.491 392.724 303.413C392.612 303.334 392.527 303.222 392.48 303.094C388.813 292.462 386.414 281.434 385.333 270.24C384.253 258.24 389 243.8 393.173 231.054L393.373 230.467C393.412 230.356 393.477 230.257 393.563 230.178C393.649 230.099 393.753 230.042 393.867 230.014C393.979 229.992 394.096 230 394.205 230.035C394.315 230.069 394.414 230.131 394.493 230.214C405.304 242.959 412.736 258.218 416.107 274.587C416.124 274.673 416.125 274.761 416.108 274.847C416.091 274.933 416.058 275.015 416.01 275.088C415.961 275.161 415.899 275.224 415.826 275.273C415.754 275.322 415.672 275.356 415.587 275.374C415.412 275.405 415.232 275.367 415.085 275.267C414.938 275.168 414.835 275.014 414.8 274.84C411.541 259.106 404.498 244.402 394.28 232C390.173 244.494 385.613 258.574 386.667 270.134C387.713 281.06 390.036 291.827 393.587 302.214H415.213C415.39 302.214 415.56 302.284 415.685 302.409C415.81 302.534 415.88 302.703 415.88 302.88C415.876 303.055 415.805 303.221 415.68 303.343C415.555 303.465 415.388 303.534 415.213 303.534V303.534Z" fill="#231F20" />
	<path d="M426.373 302.88H406.8C406.613 297.08 407.92 288.307 414.213 276.92C414.64 276.16 415.053 275.427 415.467 274.72C426.8 255.52 437.173 255.733 437.173 255.733C441.56 276 432.293 293.947 426.373 302.88Z" fill="white" />
	<path d="M426.373 303.547H406.8C406.626 303.544 406.461 303.474 406.337 303.353C406.213 303.231 406.14 303.067 406.133 302.894C405.96 297.414 407.107 288.4 413.627 276.6C414.067 275.827 414.48 275.107 414.88 274.387C426.293 255.067 436.773 255.107 437.187 255.067C437.337 255.067 437.482 255.118 437.599 255.213C437.716 255.308 437.796 255.44 437.827 255.587C442.267 276.054 432.907 294.254 426.933 303.24C426.873 303.334 426.79 303.411 426.692 303.465C426.595 303.519 426.485 303.547 426.373 303.547V303.547ZM407.453 302.214H426.013C431.827 293.36 440.68 275.974 436.68 256.44C434.493 256.734 425.613 258.907 416.08 275.107C415.667 275.814 415.267 276.547 414.84 277.294C408.68 288.334 407.387 296.84 407.453 302.214Z" fill="#231F20" />
	<path d="M422.813 333.92H384.427L378.24 302.88H429L422.813 333.92Z" fill="#231F20" />
	<path d="M367.44 159.88C367.279 159.882 367.122 159.825 367 159.72C366.868 159.602 366.787 159.437 366.774 159.26C366.762 159.084 366.819 158.909 366.933 158.773L400 121.24C400.056 121.173 400.125 121.119 400.203 121.079C400.281 121.04 400.366 121.016 400.453 121.01C400.54 121.004 400.627 121.015 400.709 121.043C400.792 121.071 400.868 121.115 400.933 121.173C401.066 121.291 401.147 121.456 401.159 121.633C401.172 121.81 401.114 121.985 401 122.12L368 159.653C367.93 159.732 367.844 159.793 367.747 159.832C367.649 159.872 367.544 159.888 367.44 159.88V159.88Z" fill="#D1D3D4" />
	<path d="M392.467 191.92C392.306 191.919 392.15 191.863 392.027 191.76C391.904 191.633 391.835 191.464 391.835 191.287C391.835 191.11 391.904 190.94 392.027 190.813L406.533 173.8C406.651 173.669 406.815 173.587 406.991 173.573C407.167 173.558 407.342 173.61 407.48 173.72C407.612 173.838 407.693 174.003 407.706 174.18C407.718 174.357 407.661 174.531 407.547 174.667L393.04 191.68C392.972 191.765 392.884 191.831 392.784 191.873C392.684 191.915 392.575 191.931 392.467 191.92V191.92Z" fill="#D1D3D4" />
	<path d="M119.16 176.907C119.027 176.908 118.896 176.869 118.786 176.795C118.675 176.721 118.589 176.615 118.538 176.492C118.488 176.368 118.476 176.233 118.504 176.102C118.531 175.972 118.597 175.853 118.693 175.76L157.733 137.72C157.794 137.651 157.868 137.595 157.951 137.555C158.034 137.516 158.124 137.494 158.216 137.491C158.307 137.488 158.399 137.505 158.484 137.539C158.569 137.573 158.647 137.624 158.711 137.69C158.776 137.755 158.826 137.833 158.859 137.919C158.892 138.005 158.907 138.096 158.902 138.188C158.898 138.28 158.875 138.37 158.835 138.452C158.794 138.534 158.737 138.608 158.667 138.667L119.627 176.72C119.5 176.839 119.333 176.905 119.16 176.907V176.907Z" fill="#D1D3D4" />
</svg>
