<svg width="534" height="400" viewBox="0 0 534 400" fill="none" xmlns="http://www.w3.org/2000/svg">
	<path d="M143.347 101.507H399.627C404.712 101.507 409.589 103.527 413.184 107.122C416.78 110.718 418.8 115.595 418.8 120.68V277.2H124.133V120.68C124.133 118.159 124.631 115.662 125.597 113.333C126.563 111.005 127.979 108.889 129.763 107.108C131.548 105.327 133.666 103.916 135.997 102.955C138.328 101.993 140.825 101.501 143.347 101.507V101.507Z" fill="white" />
	<path d="M418.8 277.8H124.133C123.974 277.8 123.821 277.737 123.709 277.624C123.596 277.512 123.533 277.359 123.533 277.2V120.68C123.537 115.433 125.623 110.403 129.332 106.693C133.042 102.983 138.073 100.897 143.32 100.893H399.626C404.872 100.9 409.901 102.987 413.61 106.696C417.319 110.406 419.406 115.434 419.413 120.68V277.2C419.41 277.36 419.343 277.513 419.229 277.625C419.114 277.737 418.96 277.8 418.8 277.8V277.8ZM124.773 276.587H418.186V120.68C418.183 115.759 416.226 111.04 412.746 107.56C409.267 104.08 404.548 102.124 399.626 102.12H143.347C138.424 102.124 133.704 104.08 130.222 107.559C126.74 111.039 124.78 115.757 124.773 120.68V276.587Z" fill="#231F20" />
	<path d="M400.386 117.253H142.586V277.2H400.386V117.253Z" fill="#DC785F" />
	<path d="M443.36 277.88H99.6001C99.4969 277.91 99.3883 277.915 99.2828 277.895C99.1773 277.875 99.0778 277.832 98.9921 277.767C98.9064 277.702 98.8369 277.619 98.7891 277.523C98.7412 277.427 98.7163 277.321 98.7163 277.213C98.7163 277.106 98.7412 277 98.7891 276.904C98.8369 276.808 98.9064 276.724 98.9921 276.66C99.0778 276.595 99.1773 276.551 99.2828 276.532C99.3883 276.512 99.4969 276.517 99.6001 276.547H443.36C443.463 276.517 443.572 276.512 443.677 276.532C443.783 276.551 443.882 276.595 443.968 276.66C444.054 276.724 444.123 276.808 444.171 276.904C444.219 277 444.244 277.106 444.244 277.213C444.244 277.321 444.219 277.427 444.171 277.523C444.123 277.619 444.054 277.702 443.968 277.767C443.882 277.832 443.783 277.875 443.677 277.895C443.572 277.915 443.463 277.91 443.36 277.88V277.88Z" fill="#231F20" />
	<path d="M93.5199 277.2H449.44C449.44 282.858 447.192 288.284 443.192 292.285C439.191 296.286 433.765 298.533 428.107 298.533H114.773C109.115 298.533 103.689 296.286 99.6883 292.285C95.6875 288.284 93.4399 282.858 93.4399 277.2H93.5199Z" fill="white" />
	<path d="M428.147 299.106H114.813C109.008 299.096 103.443 296.784 99.3393 292.678C95.2354 288.571 92.927 283.005 92.9199 277.2C92.9199 277.039 92.9827 276.885 93.0948 276.771C93.207 276.656 93.3596 276.59 93.5199 276.586H449.44C449.602 276.59 449.756 276.656 449.87 276.77C449.984 276.884 450.05 277.038 450.053 277.2C450.046 283.008 447.736 288.576 443.629 292.682C439.522 296.789 433.954 299.099 428.147 299.106V299.106ZM94.1466 277.773C94.3094 283.151 96.559 288.254 100.419 292.002C104.279 295.75 109.446 297.849 114.827 297.853H428.16C433.539 297.845 438.705 295.746 442.564 291.998C446.423 288.251 448.674 283.15 448.84 277.773H94.1466Z" fill="#231F20" />
	<path d="M300.346 277.2H242.626V282.52H300.346V277.2Z" fill="black" />
	<path d="M154.64 133.187C157.018 133.187 158.946 131.258 158.946 128.88C158.946 126.501 157.018 124.573 154.64 124.573C152.261 124.573 150.333 126.501 150.333 128.88C150.333 131.258 152.261 133.187 154.64 133.187Z" fill="#231F20" />
	<path d="M169.227 133.187C171.605 133.187 173.533 131.258 173.533 128.88C173.533 126.501 171.605 124.573 169.227 124.573C166.848 124.573 164.92 126.501 164.92 128.88C164.92 131.258 166.848 133.187 169.227 133.187Z" fill="white" />
	<path d="M183.827 133.187C186.205 133.187 188.133 131.258 188.133 128.88C188.133 126.501 186.205 124.573 183.827 124.573C181.448 124.573 179.52 126.501 179.52 128.88C179.52 131.258 181.448 133.187 183.827 133.187Z" fill="white" />
	<path d="M224.986 194.76C224.697 194.762 224.41 194.706 224.142 194.596C223.874 194.486 223.631 194.324 223.426 194.12C223.018 193.704 222.789 193.143 222.789 192.56C222.789 191.976 223.018 191.416 223.426 191L240.146 174.28C240.56 173.868 241.121 173.637 241.704 173.638C242.288 173.64 242.848 173.873 243.26 174.287C243.672 174.7 243.902 175.261 243.901 175.845C243.9 176.428 243.667 176.988 243.253 177.4L226.533 194.12C226.33 194.323 226.089 194.484 225.823 194.594C225.558 194.704 225.274 194.76 224.986 194.76V194.76Z" fill="white" />
	<path d="M241.706 194.76C241.122 194.761 240.562 194.531 240.146 194.12L223.426 177.4C223.013 176.988 222.78 176.428 222.778 175.845C222.777 175.261 223.008 174.7 223.42 174.287C223.832 173.873 224.391 173.64 224.975 173.638C225.559 173.637 226.119 173.868 226.533 174.28L243.253 191C243.562 191.307 243.772 191.698 243.858 192.125C243.944 192.552 243.902 192.994 243.736 193.397C243.571 193.799 243.29 194.144 242.928 194.386C242.567 194.629 242.142 194.759 241.706 194.76V194.76Z" fill="white" />
	<path d="M301.333 194.76C300.897 194.762 300.47 194.634 300.106 194.392C299.743 194.15 299.46 193.806 299.292 193.403C299.125 193 299.082 192.556 299.167 192.128C299.253 191.7 299.464 191.308 299.773 191L316.493 174.28C316.698 174.076 316.941 173.914 317.208 173.804C317.476 173.694 317.762 173.638 318.051 173.638C318.34 173.639 318.627 173.697 318.893 173.808C319.16 173.919 319.403 174.082 319.607 174.287C319.811 174.491 319.972 174.734 320.082 175.002C320.192 175.269 320.249 175.555 320.248 175.845C320.247 176.134 320.19 176.42 320.079 176.687C319.967 176.954 319.805 177.196 319.6 177.4L302.88 194.12C302.677 194.323 302.436 194.484 302.17 194.594C301.905 194.704 301.62 194.76 301.333 194.76V194.76Z" fill="white" />
	<path d="M317.987 194.76C317.697 194.762 317.41 194.706 317.143 194.596C316.875 194.486 316.631 194.324 316.427 194.12L299.707 177.4C299.502 177.196 299.339 176.954 299.228 176.687C299.117 176.42 299.059 176.134 299.059 175.845C299.058 175.555 299.114 175.269 299.224 175.002C299.334 174.734 299.496 174.491 299.7 174.287C299.904 174.082 300.146 173.919 300.413 173.808C300.68 173.697 300.966 173.639 301.255 173.638C301.544 173.638 301.831 173.694 302.098 173.804C302.366 173.914 302.609 174.076 302.813 174.28L319.533 191C319.842 191.307 320.053 191.698 320.139 192.125C320.225 192.552 320.182 192.994 320.017 193.397C319.851 193.799 319.57 194.144 319.209 194.386C318.847 194.629 318.422 194.759 317.987 194.76Z" fill="white" />
	<path d="M400.2 140.107H142.76C142.583 140.107 142.414 140.036 142.289 139.911C142.163 139.786 142.093 139.617 142.093 139.44C142.093 139.263 142.163 139.093 142.289 138.968C142.414 138.843 142.583 138.773 142.76 138.773H400.2C400.377 138.773 400.546 138.843 400.671 138.968C400.796 139.093 400.867 139.263 400.867 139.44C400.867 139.617 400.796 139.786 400.671 139.911C400.546 140.036 400.377 140.107 400.2 140.107Z" fill="white" />
	<path d="M195.453 232.427C194.786 232.511 194.111 232.339 193.564 231.946C193.018 231.554 192.64 230.969 192.506 230.309C192.373 229.649 192.494 228.964 192.845 228.389C193.197 227.815 193.752 227.395 194.4 227.213C218.775 216.846 244.992 211.503 271.48 211.503C297.968 211.503 324.185 216.846 348.56 227.213C348.888 227.352 349.186 227.553 349.436 227.807C349.687 228.06 349.885 228.36 350.019 228.69C350.153 229.02 350.222 229.374 350.219 229.73C350.217 230.086 350.145 230.438 350.007 230.767C349.868 231.095 349.667 231.393 349.413 231.643C349.16 231.894 348.859 232.092 348.53 232.226C348.2 232.36 347.846 232.428 347.49 232.426C347.134 232.424 346.782 232.352 346.453 232.213C322.743 222.133 297.244 216.938 271.48 216.938C245.716 216.938 220.217 222.133 196.507 232.213C196.172 232.349 195.815 232.422 195.453 232.427V232.427Z" fill="white" />
	<path d="M159.173 185.307H75.5731C70.3448 185.307 66.1064 189.545 66.1064 194.773V239.653C66.1064 244.882 70.3448 249.12 75.5731 249.12H159.173C164.401 249.12 168.64 244.882 168.64 239.653V194.773C168.64 189.545 164.401 185.307 159.173 185.307Z" fill="white" />
	<path d="M159.187 249.787H75.5733C72.8868 249.783 70.3114 248.714 68.4118 246.815C66.5122 244.915 65.4435 242.34 65.4399 239.653V194.773C65.4435 192.087 66.5122 189.511 68.4118 187.612C70.3114 185.712 72.8868 184.643 75.5733 184.64H159.187C161.873 184.643 164.448 185.712 166.348 187.612C168.248 189.511 169.316 192.087 169.32 194.773V239.653C169.316 242.34 168.248 244.915 166.348 246.815C164.448 248.714 161.873 249.783 159.187 249.787ZM75.5733 185.973C73.2404 185.977 71.0042 186.905 69.3546 188.555C67.7051 190.204 66.7768 192.44 66.7733 194.773V239.653C66.7768 241.986 67.7051 244.222 69.3546 245.872C71.0042 247.521 73.2404 248.45 75.5733 248.453H159.187C161.519 248.45 163.756 247.521 165.405 245.872C167.055 244.222 167.983 241.986 167.987 239.653V194.773C167.983 192.44 167.055 190.204 165.405 188.555C163.756 186.905 161.519 185.977 159.187 185.973H75.5733Z" fill="#D1D3D4" />
	<path d="M99.1064 201.853H103.4C104.058 201.835 104.713 201.939 105.333 202.16C105.785 202.314 106.195 202.57 106.533 202.907C106.816 203.195 107.026 203.547 107.146 203.933C107.378 204.644 107.378 205.409 107.146 206.12C107.026 206.506 106.816 206.858 106.533 207.147C106.195 207.484 105.785 207.739 105.333 207.893C104.713 208.114 104.058 208.218 103.4 208.2H100.733V213.187H99.1064V201.853ZM100.76 206.853H102.933C103.255 206.853 103.576 206.826 103.893 206.773C104.185 206.737 104.47 206.652 104.733 206.52C104.981 206.392 105.188 206.198 105.333 205.96C105.482 205.671 105.559 205.351 105.559 205.027C105.559 204.702 105.482 204.382 105.333 204.093C105.188 203.855 104.981 203.661 104.733 203.533C104.47 203.402 104.185 203.316 103.893 203.28C103.576 203.227 103.255 203.2 102.933 203.2H100.76V206.853Z" fill="black" />
	<path d="M108.973 206.533C109.416 206.151 109.933 205.865 110.493 205.693C111.048 205.51 111.628 205.415 112.213 205.413C112.731 205.402 113.248 205.47 113.746 205.613C114.133 205.734 114.494 205.924 114.813 206.173C115.078 206.393 115.287 206.672 115.426 206.987C115.557 207.285 115.625 207.607 115.626 207.933V211.813C115.626 212.08 115.626 212.32 115.626 212.547C115.626 212.773 115.626 212.987 115.626 213.187H114.293C114.293 212.8 114.293 212.413 114.293 212.04C113.985 212.491 113.561 212.85 113.066 213.08C112.213 213.395 111.285 213.451 110.4 213.24C110.073 213.151 109.765 213.002 109.493 212.8C109.238 212.614 109.028 212.372 108.88 212.093C108.725 211.788 108.647 211.449 108.653 211.107C108.636 210.669 108.762 210.238 109.013 209.88C109.266 209.538 109.594 209.26 109.973 209.067C110.427 208.842 110.913 208.69 111.413 208.613C111.991 208.526 112.575 208.481 113.16 208.48H114.293V208.16C114.292 207.963 114.251 207.768 114.173 207.587C114.087 207.392 113.965 207.215 113.813 207.067C113.641 206.902 113.437 206.774 113.213 206.693C112.933 206.603 112.64 206.558 112.346 206.56C112.082 206.557 111.818 206.583 111.56 206.64C111.35 206.688 111.144 206.755 110.946 206.84C110.773 206.917 110.608 207.011 110.453 207.12L110.026 207.427L108.973 206.533ZM113.333 209.533C112.955 209.514 112.577 209.514 112.2 209.533C111.845 209.559 111.496 209.631 111.16 209.747C110.869 209.836 110.601 209.986 110.373 210.187C110.275 210.284 110.199 210.401 110.148 210.529C110.098 210.658 110.074 210.795 110.08 210.933C110.067 211.116 110.103 211.299 110.186 211.464C110.268 211.628 110.392 211.767 110.546 211.867C110.953 212.091 111.416 212.193 111.88 212.16C112.25 212.169 112.617 212.101 112.96 211.96C113.224 211.848 113.461 211.681 113.654 211.469C113.847 211.258 113.993 211.006 114.08 210.733C114.159 210.479 114.199 210.213 114.2 209.947V209.467L113.333 209.533Z" fill="black" />
	<path d="M126.066 213.12C126.074 213.661 125.965 214.198 125.746 214.693C125.541 215.169 125.231 215.593 124.84 215.933C124.428 216.294 123.947 216.566 123.426 216.733C122.839 216.937 122.221 217.036 121.6 217.027C120.873 217.031 120.149 216.928 119.453 216.72C118.769 216.5 118.138 216.142 117.6 215.667L118.653 214.453C119.038 214.838 119.49 215.15 119.986 215.373C120.498 215.582 121.047 215.686 121.6 215.68C122.085 215.691 122.569 215.615 123.026 215.453C123.367 215.318 123.675 215.113 123.933 214.853C124.149 214.611 124.308 214.324 124.4 214.013C124.494 213.702 124.543 213.378 124.546 213.053V212C124.251 212.454 123.829 212.811 123.333 213.027C122.822 213.238 122.273 213.347 121.72 213.346C121.151 213.355 120.585 213.255 120.053 213.053C119.561 212.869 119.109 212.593 118.72 212.24C118.35 211.879 118.056 211.447 117.854 210.971C117.653 210.495 117.548 209.984 117.546 209.467C117.546 208.933 117.645 208.404 117.84 207.906C118.029 207.422 118.318 206.983 118.688 206.618C119.057 206.253 119.5 205.97 119.986 205.786C120.534 205.573 121.119 205.469 121.706 205.48C122.261 205.48 122.81 205.593 123.32 205.813C123.808 206.01 124.233 206.337 124.546 206.76V206.76V205.666H126.093L126.066 213.12ZM121.826 206.76C121.444 206.754 121.063 206.822 120.706 206.96C120.393 207.078 120.107 207.26 119.866 207.493C119.632 207.733 119.45 208.019 119.333 208.333C119.196 208.672 119.128 209.035 119.133 209.4C119.121 209.741 119.18 210.08 119.306 210.397C119.432 210.714 119.623 211.001 119.866 211.24C120.421 211.688 121.113 211.932 121.826 211.932C122.54 211.932 123.231 211.688 123.786 211.24C124.032 211.002 124.224 210.716 124.351 210.399C124.477 210.081 124.535 209.741 124.52 209.4C124.522 209.036 124.459 208.675 124.333 208.333C124.212 208.018 124.025 207.732 123.786 207.493C123.546 207.26 123.26 207.078 122.946 206.96C122.589 206.822 122.209 206.754 121.826 206.76V206.76Z" fill="black" />
	<path d="M129.587 209.92C129.584 210.236 129.662 210.548 129.813 210.826C129.97 211.096 130.178 211.332 130.427 211.52C130.69 211.723 130.988 211.877 131.307 211.973C131.643 212.08 131.994 212.134 132.347 212.133C132.786 212.143 133.219 212.032 133.6 211.813C133.97 211.597 134.304 211.322 134.587 211L135.76 211.826C135.312 212.339 134.751 212.741 134.122 213.003C133.493 213.264 132.813 213.377 132.133 213.333C131.538 213.343 130.946 213.244 130.387 213.04C129.895 212.843 129.443 212.558 129.053 212.2C128.684 211.82 128.402 211.366 128.227 210.866C128.027 210.366 127.928 209.832 127.933 209.293C127.928 208.748 128.037 208.207 128.253 207.706C128.459 207.233 128.758 206.807 129.133 206.453C129.516 206.086 129.97 205.8 130.467 205.613C131.6 205.178 132.854 205.178 133.987 205.613C134.458 205.832 134.88 206.145 135.227 206.533C135.545 206.926 135.781 207.38 135.92 207.866C136.063 208.337 136.135 208.827 136.133 209.32V209.826L129.587 209.92ZM134.48 208.773C134.47 208.474 134.416 208.177 134.32 207.893C134.222 207.635 134.072 207.399 133.88 207.2C133.673 206.992 133.423 206.832 133.147 206.733C132.819 206.608 132.47 206.55 132.12 206.56C131.763 206.554 131.409 206.622 131.08 206.76C130.782 206.879 130.51 207.056 130.28 207.28C130.061 207.483 129.884 207.728 129.76 208C129.646 208.242 129.587 208.506 129.587 208.773H134.48Z" fill="black" />
	<path d="M76.2666 221.053H78.4399L85.1066 230.387V221.053H86.7599V232.387H84.7466L77.9599 223.053V232.387H76.2666V221.053Z" fill="black" />
	<path d="M89.2 228.6C89.1931 228.061 89.307 227.528 89.5333 227.04C89.7598 226.565 90.0716 226.135 90.4533 225.773C90.8448 225.413 91.296 225.125 91.7867 224.92C92.3318 224.713 92.9104 224.609 93.4933 224.613C94.0761 224.612 94.6542 224.716 95.2 224.92C95.6913 225.123 96.1427 225.412 96.5333 225.773C96.915 226.135 97.2269 226.565 97.4533 227.04C97.6797 227.528 97.7936 228.061 97.7867 228.6C97.7905 229.138 97.6768 229.67 97.4533 230.16C97.2334 230.635 96.9206 231.061 96.5333 231.413C96.1427 231.774 95.6913 232.063 95.2 232.266C94.656 232.477 94.0766 232.581 93.4933 232.573C92.9099 232.583 92.3301 232.479 91.7867 232.266C91.296 232.062 90.8448 231.773 90.4533 231.413C90.0661 231.061 89.7533 230.635 89.5333 230.16C89.3099 229.67 89.1962 229.138 89.2 228.6ZM90.8533 228.6C90.8522 228.959 90.9155 229.316 91.04 229.653C91.1585 229.967 91.34 230.252 91.5733 230.493C91.8181 230.731 92.1083 230.917 92.4267 231.04C93.1496 231.306 93.9438 231.306 94.6667 231.04C94.981 230.917 95.2668 230.731 95.5067 230.493C95.7445 230.256 95.9266 229.969 96.04 229.653C96.2886 228.968 96.2886 228.218 96.04 227.533C95.9232 227.219 95.7415 226.933 95.5067 226.693C95.266 226.46 94.9802 226.278 94.6667 226.16C93.9438 225.893 93.1496 225.893 92.4267 226.16C92.1091 226.278 91.8188 226.46 91.5733 226.693C91.3429 226.936 91.1617 227.221 91.04 227.533C90.9144 227.875 90.8512 228.236 90.8533 228.6Z" fill="black" />
	<path d="M104.213 226.053H101.987V229.493C101.987 229.706 101.987 229.92 101.987 230.12C101.999 230.313 102.044 230.502 102.12 230.68C102.19 230.847 102.311 230.987 102.467 231.08C102.673 231.198 102.909 231.254 103.147 231.24C103.337 231.252 103.529 231.252 103.72 231.24C103.906 231.21 104.086 231.152 104.253 231.067V232.4C104.026 232.505 103.782 232.573 103.533 232.6C103.307 232.615 103.08 232.615 102.853 232.6C102.398 232.618 101.944 232.541 101.52 232.373C101.227 232.247 100.976 232.039 100.8 231.773C100.638 231.526 100.542 231.241 100.52 230.947C100.52 230.644 100.52 230.338 100.52 230.027V226.027H98.6665V224.773H100.467V222.667H102.013V224.786H104.24L104.213 226.053Z" fill="black" />
	<path d="M111.4 221.053H119.067V222.493H113.053V226.053H118.667V227.493H113.067V232.387H111.4V221.053Z" fill="black" />
	<path d="M120.507 228.6C120.5 228.061 120.614 227.528 120.84 227.04C121.066 226.565 121.378 226.135 121.76 225.773C122.151 225.412 122.602 225.123 123.093 224.92C123.639 224.716 124.217 224.612 124.8 224.613C125.383 224.609 125.962 224.713 126.507 224.92C126.997 225.125 127.449 225.413 127.84 225.773C128.222 226.135 128.534 226.565 128.76 227.04C128.986 227.528 129.1 228.061 129.093 228.6C129.097 229.138 128.983 229.67 128.76 230.16C128.54 230.635 128.227 231.061 127.84 231.413C127.449 231.773 126.997 232.062 126.507 232.266C125.963 232.479 125.383 232.583 124.8 232.573C124.217 232.581 123.637 232.477 123.093 232.266C122.602 232.063 122.151 231.774 121.76 231.413C121.373 231.061 121.06 230.635 120.84 230.16C120.617 229.67 120.503 229.138 120.507 228.6V228.6ZM122.16 228.6C122.159 228.959 122.222 229.316 122.347 229.653C122.46 229.969 122.642 230.256 122.88 230.493C123.12 230.731 123.406 230.917 123.72 231.04C124.443 231.306 125.237 231.306 125.96 231.04C126.278 230.917 126.569 230.731 126.813 230.493C127.047 230.252 127.228 229.967 127.347 229.653C127.595 228.968 127.595 228.218 127.347 227.533C127.225 227.221 127.044 226.936 126.813 226.693C126.568 226.46 126.278 226.278 125.96 226.16C125.237 225.893 124.443 225.893 123.72 226.16C123.406 226.278 123.121 226.46 122.88 226.693C122.645 226.933 122.463 227.219 122.347 227.533C122.221 227.875 122.158 228.236 122.16 228.6Z" fill="black" />
	<path d="M138.373 232.387H136.827V231.213C136.61 231.647 136.253 231.995 135.813 232.2C135.297 232.459 134.724 232.587 134.147 232.573C133.759 232.576 133.373 232.522 133 232.413C132.66 232.299 132.343 232.123 132.067 231.893C131.785 231.643 131.562 231.333 131.413 230.987C131.241 230.564 131.159 230.11 131.173 229.653V224.8H132.733V229.333C132.721 229.642 132.771 229.951 132.88 230.24C132.972 230.472 133.113 230.681 133.293 230.853C133.468 231.005 133.672 231.119 133.893 231.187C134.118 231.256 134.352 231.292 134.587 231.293C134.895 231.294 135.201 231.244 135.493 231.147C135.762 231.048 136.008 230.893 136.213 230.693C136.425 230.461 136.588 230.189 136.693 229.893C136.819 229.529 136.877 229.145 136.867 228.76V224.8H138.413L138.373 232.387Z" fill="black" />
	<path d="M140.72 224.8H142.267V225.973C142.487 225.542 142.843 225.195 143.28 224.987C143.801 224.726 144.378 224.598 144.96 224.613C145.339 224.612 145.717 224.666 146.08 224.773C146.428 224.88 146.75 225.057 147.027 225.293C147.31 225.543 147.533 225.853 147.68 226.2C147.852 226.623 147.934 227.077 147.92 227.533V232.413H146.374V227.933C146.381 227.623 146.326 227.315 146.214 227.027C146.125 226.797 145.984 226.591 145.8 226.427C145.626 226.271 145.422 226.153 145.2 226.08C144.975 226.015 144.741 225.983 144.507 225.987C144.204 225.982 143.902 226.027 143.614 226.12C143.338 226.221 143.088 226.38 142.88 226.587C142.666 226.812 142.502 227.08 142.4 227.373C142.281 227.739 142.223 228.122 142.227 228.507V232.413H140.68L140.72 224.8Z" fill="black" />
	<path d="M158.493 232.387H156.946V231.293C156.633 231.716 156.208 232.044 155.72 232.24C155.21 232.46 154.661 232.574 154.106 232.573C153.52 232.585 152.936 232.485 152.386 232.28C151.89 232.087 151.436 231.797 151.053 231.427C150.693 231.064 150.407 230.633 150.213 230.16C150.012 229.665 149.912 229.134 149.92 228.6C149.913 228.057 150.012 227.518 150.213 227.013C150.404 226.542 150.69 226.116 151.053 225.76C151.434 225.39 151.888 225.104 152.386 224.92C152.934 224.704 153.518 224.6 154.106 224.613C154.676 224.606 155.241 224.724 155.76 224.96C156.237 225.15 156.649 225.475 156.946 225.893V225.893V220.293H158.493V232.387ZM154.253 231.24C154.636 231.246 155.016 231.178 155.373 231.04C155.687 230.917 155.973 230.731 156.213 230.493C156.451 230.256 156.633 229.97 156.746 229.653C157.013 228.972 157.013 228.215 156.746 227.533C156.63 227.219 156.448 226.933 156.213 226.693C155.973 226.46 155.687 226.279 155.373 226.16C154.65 225.894 153.856 225.894 153.133 226.16C152.82 226.279 152.534 226.46 152.293 226.693C152.054 226.932 151.868 227.218 151.746 227.533C151.498 228.218 151.498 228.969 151.746 229.653C151.865 229.97 152.051 230.257 152.293 230.493C152.533 230.731 152.819 230.917 153.133 231.04C153.49 231.178 153.87 231.246 154.253 231.24V231.24Z" fill="black" />
	<path d="M459.573 151.733H377.6C373.381 151.733 369.96 155.154 369.96 159.373V187.92C369.96 192.139 373.381 195.56 377.6 195.56H459.573C463.793 195.56 467.213 192.139 467.213 187.92V159.373C467.213 155.154 463.793 151.733 459.573 151.733Z" fill="white" />
	<path d="M459.587 196.213H377.6C375.398 196.21 373.287 195.333 371.73 193.776C370.173 192.219 369.297 190.109 369.293 187.907V159.373C369.297 157.171 370.173 155.061 371.73 153.504C373.287 151.946 375.398 151.07 377.6 151.067H459.587C461.789 151.07 463.9 151.946 465.457 153.504C467.014 155.061 467.89 157.171 467.893 159.373V187.907C467.89 190.109 467.014 192.219 465.457 193.776C463.9 195.333 461.789 196.21 459.587 196.213V196.213ZM377.6 152.4C375.751 152.4 373.977 153.135 372.669 154.442C371.361 155.75 370.627 157.524 370.627 159.373V187.907C370.627 189.756 371.361 191.53 372.669 192.838C373.977 194.145 375.751 194.88 377.6 194.88H459.587C461.436 194.88 463.21 194.145 464.518 192.838C465.825 191.53 466.56 189.756 466.56 187.907V159.373C466.56 157.524 465.825 155.75 464.518 154.442C463.21 153.135 461.436 152.4 459.587 152.4H377.6Z" fill="#D1D3D4" />
	<path d="M400 180.226H388.533V176.226L397.253 163.386H404.8V176.226H407.56V180.226H404.8V183.893H400V180.226ZM400 176.226V166.44L393.333 176.226H400Z" fill="black" />
	<path d="M408.893 173.64C408.893 166.973 412.893 162.973 418.68 162.973C424.466 162.973 428.426 166.973 428.426 173.64C428.426 180.306 424.426 184.306 418.68 184.306C412.933 184.306 408.893 180.293 408.893 173.64ZM423.666 173.64C423.666 169.12 421.773 166.893 418.68 166.893C415.586 166.893 413.653 169.12 413.653 173.64C413.653 178.16 415.546 180.386 418.68 180.386C421.813 180.386 423.666 178.16 423.666 173.64Z" fill="black" />
	<path d="M441.133 180.226H429.613V176.226L438.333 163.386H445.893V176.226H448.653V180.226H445.893V183.893H441.133V180.226ZM441.133 176.226V166.44H441.067L434.4 176.226H441.133Z" fill="black" />
	<path d="M128.24 102.173C128.1 102.174 127.963 102.127 127.853 102.04C127.713 101.934 127.619 101.777 127.591 101.603C127.564 101.429 127.605 101.251 127.707 101.107C130.093 97.8399 133.04 93.1066 130.84 89.3466C130.772 89.2261 130.696 89.1103 130.613 88.9999C128.189 91.928 125.308 94.445 122.08 96.4533C120.372 97.6893 118.271 98.2584 116.173 98.0533C115.728 97.9629 115.305 97.7827 114.931 97.5237C114.558 97.2647 114.241 96.9322 114 96.5466C113.694 95.9944 113.504 95.3855 113.442 94.7572C113.38 94.1289 113.448 93.4946 113.64 92.8933C113.75 92.4652 113.893 92.0462 114.067 91.6399C111.262 94.445 108.091 96.858 104.64 98.8133C103.894 99.2932 103.02 99.535 102.133 99.5066C101.421 99.3587 100.776 98.9837 100.295 98.438C99.8144 97.8922 99.5236 97.2051 99.4666 96.4799C99.392 95.1819 99.6684 93.8877 100.267 92.7333C102.613 87.6589 106.25 83.2897 110.816 80.063C115.381 76.8362 120.714 74.865 126.28 74.3466C127.272 71.8571 127.408 69.1085 126.667 66.5333C126.303 65.2792 125.621 64.1408 124.686 63.2294C123.751 62.318 122.596 61.6646 121.333 61.3333C118.923 61.0459 116.482 61.5116 114.347 62.6666C102.853 67.8978 93.458 76.851 87.68 88.0799C87.2319 88.7859 86.9916 89.6038 86.9866 90.4399C87.0086 90.6285 87.0684 90.8106 87.1623 90.9756C87.2562 91.1405 87.3824 91.2848 87.5333 91.3999C87.611 91.4675 87.7027 91.5169 87.8019 91.5446C87.9011 91.5723 88.0052 91.5775 88.1066 91.5599C88.2834 91.5263 88.4664 91.5644 88.6151 91.6656C88.7639 91.7669 88.8664 91.9231 88.9 92.0999C88.9336 92.2767 88.8955 92.4597 88.7943 92.6084C88.693 92.7572 88.5368 92.8597 88.36 92.8933C88.0685 92.9593 87.7661 92.9613 87.4738 92.8991C87.1814 92.837 86.9061 92.7121 86.6666 92.5333C86.0841 92.0735 85.7057 91.403 85.6133 90.6666C85.5775 89.5663 85.8699 88.4802 86.4533 87.5466C92.3789 76.0334 102.013 66.8546 113.8 61.4933C116.12 60.4533 118.853 59.4399 121.573 59.9999C123.087 60.368 124.477 61.127 125.605 62.201C126.732 63.2751 127.558 64.6264 128 66.1199C128.763 68.7932 128.665 71.6388 127.72 74.2533C128.6 74.2533 129.48 74.2533 130.387 74.2533C131.243 74.2585 132.086 74.4736 132.84 74.8799C134.573 75.9599 134.667 78.2533 134.573 79.5199C134.301 82.5235 133.223 85.3978 131.453 87.8399C131.655 88.0881 131.838 88.351 132 88.6266C134.587 93.0266 131.413 98.2799 128.8 101.853C128.742 101.95 128.66 102.031 128.562 102.087C128.464 102.143 128.353 102.173 128.24 102.173ZM125.693 75.7333C120.476 76.3354 115.501 78.271 111.248 81.3535C106.996 84.4361 103.609 88.5618 101.413 93.3333C100.923 94.2743 100.684 95.3261 100.72 96.3866C100.746 96.8223 100.911 97.2381 101.193 97.572C101.474 97.9059 101.855 98.1402 102.28 98.2399C102.897 98.2346 103.5 98.0492 104.013 97.7066C109.493 94.7333 113.893 90.1199 118.133 85.7066C120.853 82.6666 123.907 79.5199 125.693 75.7333ZM124.587 86.3999C123.906 86.3978 123.227 86.4648 122.56 86.5999C120.803 86.9139 119.165 87.7003 117.821 88.8748C116.478 90.0493 115.479 91.5676 114.933 93.2666C114.788 93.7021 114.73 94.1622 114.765 94.6201C114.799 95.078 114.924 95.5244 115.133 95.9333C115.279 96.1703 115.473 96.3737 115.702 96.5301C115.932 96.6864 116.193 96.792 116.467 96.8399C118.204 96.9823 119.935 96.5104 121.36 95.5066C124.541 93.4873 127.362 90.9501 129.707 87.9999C128.244 86.8695 126.435 86.2805 124.587 86.3333V86.3999ZM124.587 85.0666C126.726 85.0074 128.821 85.6852 130.52 86.9866C132.053 84.7769 132.973 82.2006 133.187 79.5199C133.187 78.7466 133.187 76.8533 132.08 76.1199C131.515 75.832 130.888 75.6856 130.253 75.6933C129.228 75.6333 128.199 75.6333 127.173 75.6933C125.4 79.8666 122.187 83.2933 119.293 86.3599C120.235 85.8993 121.229 85.5545 122.253 85.3333C123.009 85.1427 123.782 85.031 124.56 84.9999L124.587 85.0666Z" fill="#D1D3D4" />
</svg>
